{"title":"The Hunger Games Mocking Jay 2","uid":14039304,"size":970138763,"categoryP":"video","categoryS":"movies","magnet":"?xt=urn:btih:936fc29f7201737d801096de60be05510704b619&amp;dn=The+Hunger+Games+Mocking+Jay+2&amp;tr=udp%3A%2F%2Ftracker.leechers-paradise.org%3A6969&amp;tr=udp%3A%2F%2Fzer0day.ch%3A1337&amp;tr=udp%3A%2F%2Fopen.demonii.com%3A1337&amp;tr=udp%3A%2F%2Ftracker.coppersurfer.tk%3A6969&amp;tr=udp%3A%2F%2Fexodus.desync.com%3A6969","seeders":11,"leechers":2,"uploader":"d1rtn0thing","files":1,"time":1459005363,"description":"General\r\nComplete name                  : C:Usersn0th1ng_81VideosThe Hunger Games Mocking Jay 2The.Hunger.Games.Mockingjay.Part.2.2015.mp4.mp4\r\nFormat                         : MPEG-4\r\nFormat profile                 : Base Media\r\nCodec ID                       : isom\r\nFile size                      : 925 MiB\r\nDuration                       : 2h 16mn\r\nOverall bit rate mode          : Variable\r\nOverall bit rate               : 944 Kbps\r\nMovie name                     : The Hunger Games: Mockingjay - Part 2\r\nPerformer                      : Francis Lawrence\r\nGenre                          : Action &amp; Adventure\r\nContentType                    : Short Film\r\nRecorded date                  : 2015\r\nEncoded date                   : UTC 2016-03-21 16:03:19\r\nTagged date                    : UTC 2016-03-21 16:03:19\r\nWriting application            : Lavf57.21.101\r\nLongDescription                : As the war of Panem escalates to the destruction of other districts, Katniss Everdeen, the reluctant leader of the rebellion, must bring together an army against President Snow, while all she holds dear hangs in the balance.\r\n\r\nVideo\r\nID                             : 1\r\nFormat                         : AVC\r\nFormat/Info                    : Advanced Video Codec\r\nFormat profile                 :   \r\nFormat settings, CABAC         : Yes\r\nFormat settings, ReFrames      : 6 frames\r\nCodec ID                       : avc1\r\nCodec ID/Info                  : Advanced Video Coding\r\nDuration                       : 2h 16mn\r\nBit rate mode                  : Variable\r\nBit rate                       : 750 Kbps\r\nMaximum bit rate               : 29.0 Mbps\r\nWidth                          : 1 280 pixels\r\nHeight                         : 720 pixels\r\nDisplay aspect ratio           : 16:9\r\nFrame rate mode                : Constant\r\nFrame rate                     : 29.970 fps\r\nColor space                    : YUV\r\nChroma subsampling             : 4:2:0\r\nBit depth                      : 8 bits\r\nScan type                      : Progressive\r\nBits/(Pixel*Frame)             : 0.027\r\nStream size                    : 734 MiB (79%)\r\nWriting library                : x264 core 148 r2638\r\nEncoding settings              : cabac=1 / ref=6 / deblock=1:2:1 / analyse=0x3:0x133 / me=hex / subme=7 / psy=1 / psy_rd=1.00:0.10 / mixed_ref=0 / me_range=16 / chroma_me=1 / trellis=1 / 8x8dct=1 / cqm=0 / deadzone=21,11 / fast_pskip=1 / chroma_qp_offset=-3 / threads=3 / lookahead_threads=1 / sliced_threads=0 / nr=0 / decimate=1 / interlaced=0 / bluray_compat=1 / constrained_intra=0 / bframes=3 / b_pyramid=0 / b_adapt=1 / b_bias=0 / direct=3 / weightb=1 / open_gop=1 / weightp=1 / keyint=299 / keyint_min=1 / scenecut=40 / intra_refresh=0 / rc_lookahead=40 / rc=abr / mbtree=1 / bitrate=750 / ratetol=1.0 / qcomp=0.60 / qpmin=10 / qpmax=69 / qpstep=4 / vbv_maxrate=29000 / vbv_bufsize=29000 / nal_hrd=vbr / filler=0 / ip_ratio=1.40 / aq=3:1.00\r\nEncoded date                   : UTC 2016-03-21 16:03:19\r\nTagged date                    : UTC 2016-03-21 16:03:19\r\n\r\nAudio\r\nID                             : 2\r\nFormat                         : AAC\r\nFormat/Info                    : Advanced Audio Codec\r\nFormat profile                 : LC\r\nCodec ID                       : 40\r\nDuration                       : 2h 16mn\r\nBit rate mode                  : Variable\r\nBit rate                       : 187 Kbps\r\nMaximum bit rate               : 320 Kbps\r\nChannel(s)                     : 2 channels\r\nChannel positions              : Front: L R\r\nSampling rate                  : 48.0 KHz\r\nCompression mode               : Lossy\r\nStream size                    : 183 MiB (20%)\r\nEncoded date                   : UTC 2016-03-21 16:03:19\r\nTagged date                    : UTC 2016-03-21 16:03:19\r\n\r\nthis is a reencode, of another file that i had audio issues with that would mute during play back with an error code. this is a down grade from 6 channel audio to 2channel audio,\r\n\r\nn0th1ng81","torrent":{"xt":"urn:btih:936fc29f7201737d801096de60be05510704b619","amp;dn":"The+Hunger+Games+Mocking+Jay+2","amp;tr":["udp%3A%2F%2Ftracker.leechers-paradise.org%3A6969","udp%3A%2F%2Fzer0day.ch%3A1337","udp%3A%2F%2Fopen.demonii.com%3A1337","udp%3A%2F%2Ftracker.coppersurfer.tk%3A6969","udp%3A%2F%2Fexodus.desync.com%3A6969"],"infoHash":"936fc29f7201737d801096de60be05510704b619","infoHashBuffer":{"type":"Buffer","data":[147,111,194,159,114,1,115,125,128,16,150,222,96,190,5,81,7,4,182,25]},"announce":[],"urlList":[]}}